<svg xmlns="http://www.w3.org/2000/svg" width="133.304" height="148.433" viewBox="0 0 133.30359 148.433"><path d="M108.876-14.044" fill="none" stroke="#000"/><path d="M66.65 148.433c-1.774 0-3.55-.453-5.142-1.357L5.143 115.033C1.96 113.223 0 109.88 0 106.263v-64.09c0-3.62 1.96-6.96 5.143-8.772L61.508 1.358C63.1.453 64.876 0 66.65 0c1.777 0 3.553.453 5.144 1.357L128.16 33.4c3.183 1.81 5.144 5.154 5.144 8.772v64.09c0 3.618-1.96 6.96-5.145 8.77l-56.366 32.045c-1.592.903-3.368 1.356-5.144 1.356z" fill="#0a0a1e"/><text x="-482.498" y="-74.15" font-size="1.457" font-family="Lello"/><path d="M67.32 65.854c-1.94-1.988-4.634-4.367-8.086-7.137-3.802-3.053-6.362-5.46-7.68-7.216-1.32-1.757-1.98-3.683-1.98-5.778 0-3.125 1.592-5.584 4.772-7.377 3.18-1.793 7.33-2.69 12.45-2.69 5.12 0 9.592.8 13.412 2.397 3.82 1.598 5.73 3.8 5.73 6.605 0 1.35-.464 2.467-1.395 3.355-.93.888-2.017 1.332-3.258 1.332-1.785 0-3.88-1.225-6.284-3.675-2.443-2.487-4.508-4.236-6.195-5.248-1.688-1.012-3.656-1.518-5.906-1.518-2.87 0-5.228.586-7.07 1.758-1.842 1.172-2.764 2.663-2.764 4.474 0 1.704.757 3.302 2.27 4.793 1.512 1.49 5.41 4.207 11.694 8.148 6.71 4.226 11.452 7.528 14.225 9.907 2.774 2.38 5.033 5.273 6.78 8.682 1.744 3.408 2.617 7.012 2.617 10.812 0 6.674-2.57 12.56-7.71 17.655-5.14 5.095-11.14 7.643-18.007 7.643-6.244 0-11.52-2.042-15.825-6.125-4.305-4.084-6.458-9.534-6.458-16.352 0-6.567 2.376-12.053 7.127-16.456 4.75-4.403 10.598-7.066 17.54-7.99zm2.56 2.45c-11.13 1.67-16.697 8.664-16.697 20.985 0 6.355 1.386 11.29 4.16 14.806 2.773 3.515 6.002 5.273 9.687 5.273 3.84 0 7-1.697 9.484-5.088 2.482-3.39 3.723-7.98 3.723-13.768 0-8.38-3.452-15.783-10.356-22.21z" font-size="2050.278" font-family="Times New Roman" fill="#fff"/></svg>